<?xml version="1.0" encoding="UTF-8"?>
<svg width="491px" height="122px" viewBox="0 0 491 122" version="1.1" xmlns="http://www.w3.org/2000/svg" xmlns:xlink="http://www.w3.org/1999/xlink">
    <!-- Generator: Sketch 57.1 (83088) - https://sketch.com -->
    <title>Qubic logo</title>
    <desc>Created with Sketch.</desc>
    <defs>
        <path d="M104.548864,25.5068281 L63.0364373,2.20044814 C58.6744107,-0.249415587 53.2984107,-0.249415587 48.936384,2.20044814 L7.42395733,25.5068281 C3.061184,27.9566918 0.373184,32.4832035 0.373184,37.3822048 L0.373184,83.9964169 C0.373184,88.8954182 3.061184,93.4219299 7.42395733,95.8717937 L48.936384,119.178174 C53.2984107,121.628037 58.6744107,121.628037 63.0364373,119.178174 L104.548864,95.8717937 C108.911637,93.4219299 111.598891,88.8954182 111.598891,83.9964169 L111.598891,37.3822048 C111.598891,32.4832035 108.911637,27.9566918 104.548864,25.5068281" id="path-1"></path>
    </defs>
    <g id="Page-1" stroke="none" stroke-width="1" fill="none" fill-rule="evenodd">
        <g id="Qubic-One-Page_New" transform="translate(-475.000000, -119.000000)">
            <g id="Qubic-logo" transform="translate(475.000000, 119.000000)">
                <g id="Logo">
                    <g id="Qubee">
                        <g id="logo-bg" transform="translate(0.000000, 0.040853)">
                            <mask id="mask-2" fill="white">
                                <use xlink:href="#path-1"></use>
                            </mask>
                            <use id="Mask" fill="#FFFFFF" xlink:href="#path-1"></use>
                            <g mask="url(#mask-2)">
                                <g transform="translate(-1.493333, -3.630503)">
                                    <polygon id="Fill-1" fill="#C9F951" points="12.5767787 24.770562 24.7340053 18.0149212 19.5768738 36.8612011"></polygon>
                                    <polygon id="Fill-2" fill="#74F473" points="40.943616 9.57029753 30.7797325 31.2194611 19.5768738 36.8612011 24.7342293 18.0148485"></polygon>
                                    <polygon id="Fill-3" fill="#5EFFEA" points="58.311456 -0.000290440276 40.9439893 9.57044275 30.2602449 31.7745292 62.6650308 18.0149212"></polygon>
                                    <polygon id="Fill-4" fill="#FFBA48" points="0 31.0862584 0.12992 43.0676458 19.5768738 36.8612011 12.5768533 24.7699085"></polygon>
                                    <polygon id="Fill-5" fill="#FF974B" points="0.129696 43.0673554 0.419402667 85.5718376 19.5768738 36.8612011"></polygon>
                                    <polygon id="Fill-6" fill="#FFAB66" points="0.419328 85.5716923 0.342421333 93.768643 4.254208 96.6585238 20.9847662 46.7768586 20.0342602 39.3963732 19.5768738 36.8612011"></polygon>
                                    <polygon id="Fill-7" fill="#FF9D6E" points="28.867104 93.4246891 20.9847662 46.7765682 4.253984 96.6594677 8.96097067 100.073593"></polygon>
                                    <polygon id="Fill-8" fill="#FFD27B" points="19.5768738 36.8612011 49.3451093 83.5374486 27.870976 93.4247617"></polygon>
                                    <polygon id="Fill-9" fill="#F6E193" points="19.5768738 36.8612011 60.6317227 55.9485269 49.3451093 83.5374486"></polygon>
                                    <polygon id="Fill-10" fill="#D7FF6C" points="30.7797325 31.2194611 28.5004907 41.088731 19.5768738 36.8612011"></polygon>
                                    <polygon id="Fill-11" fill="#BCEFBC" points="62.6650308 18.0149212 65.190944 29.7685308 28.5004907 41.088731 30.7797325 31.2194611"></polygon>
                                    <polygon id="Fill-12" fill="#3BE0FF" points="62.6650308 18.0149212 72.789472 27.4465334 87.118752 16.8904816 58.3116053 -7.26100689e-05"></polygon>
                                    <polygon id="Fill-13" fill="#88F2FF" points="65.1913173 29.7685308 72.790144 27.4464608 62.6650308 18.0149212"></polygon>
                                    <polygon id="Fill-15" fill="#B5ECD3" points="72.78992 27.4463156 66.71056 41.5914831 65.1910933 29.7683856"></polygon>
                                    <polygon id="Fill-16" fill="#D4E7B7" points="60.6317973 55.9482364 66.7111573 41.5917736 65.190944 29.7686761 28.2206061 41.088731"></polygon>
                                    <polygon id="Fill-17" fill="#37EDFF" points="72.78992 27.4463156 99.8187307 46.7765682 105.57232 36.3134572 105.138507 27.2350203 87.1184533 16.8902638"></polygon>
                                    <polygon id="Fill-18" fill="#44D6FF" points="109.483808 29.3845688 99.8187307 46.7768586 84.6637254 35.7733835 101.665237 24.7699085"></polygon>
                                    <polygon id="Fill-19" fill="#00D1F0" points="109.483808 29.3845688 114.039968 32.0914722 113.936181 38.566112 105.716053 46.7768586 103.021543 49.6486165 95.3689707 44.0228357"></polygon>
                                    <polygon id="Fill-20" fill="#5FFBFF" points="89.877984 54.7314369 103.021543 48.852958 72.7897707 27.4460252"></polygon>
                                    <polygon id="Fill-21" fill="#76E4F7" points="70.835744 63.1266131 66.7111573 41.3341531 72.9047573 27.4460252 89.940704 54.3938001"></polygon>
                                    <polygon id="Fill-23" fill="#B1E4DD" points="60.6317973 55.9482364 70.835744 62.2820127 66.7111573 41.5917736"></polygon>
                                    <polygon id="Fill-24" fill="#D3D7AE" points="49.3450347 83.5372308 60.631648 55.948309 71.269408 62.4933806"></polygon>
                                    <polygon id="Fill-25" fill="#EFC6A5" points="73.223808 73.2604373 71.2697813 62.4930902 49.345408 83.5369404"></polygon>
                                    <polygon id="Fill-26" fill="#EC959B" points="30.2372373 105.140469 28.5004907 92.8955069 49.345184 83.5375213"></polygon>
                                    <polygon id="Fill-27" fill="#FF5870" points="8.960896 100.073375 30.2371627 105.140832 28.500416 92.8951439"></polygon>
                                    <polygon id="Fill-28" fill="#FF259F" points="8.960896 100.073375 30.2371627 105.140832 36.750336 116.118748"></polygon>
                                    <polygon id="Fill-29" fill="#FF819D" points="49.3450347 83.5372308 51.947168 124.352803 36.7502613 116.118821 30.237088 105.140179"></polygon>
                                    <polygon id="Fill-30" fill="#FFA091" points="51.947616 124.35244 57.5349227 127.88492 77.8412693 116.269487 49.344736 83.5375939"></polygon>
                                    <polygon id="Fill-31" fill="#F7B500" points="82.5593067 113.374378 77.3657144 116.118748 49.3453333 83.5374486 73.2237333 73.2602195"></polygon>
                                    <polygon id="Fill-32" fill="#D5B2E4" points="71.269632 62.4930176 82.1254187 70.0938396 73.2236587 73.2603647"></polygon>
                                    <polygon id="Fill-33" fill="#7CC1FF" points="89.940704 54.3935096 95.3689707 64.3933683 82.125344 70.0939848 71.2695573 62.4931628"></polygon>
                                    <polygon id="Fill-34" fill="#46F0F7" points="103.021543 48.852958 103.021543 61.2165193 95.3685973 64.3932231 89.9403307 54.3933644"></polygon>
                                    <polygon id="Fill-36" fill="#66FFF3" points="103.021543 61.2165193 113.822016 54.0480309 113.98128 38.0807137 103.021543 48.852958"></polygon>
                                    <polygon id="Fill-37" fill="#5CF4D3" points="113.98128 71.0591573 102.426427 61.2165193 113.82224 54.048394"></polygon>
                                    <polygon id="Fill-38" fill="#81D8CC" points="113.98128 80.240298 95.3689707 68.8367014 95.3689707 64.2764133 103.021543 61.2165193 114.039968 65.1429814"></polygon>
                                    <polygon id="Fill-39" fill="#9CBAA3" points="97.175232 82.5669425 114.256725 96.2735452 113.981205 80.2405159 93.124892 66.7598624"></polygon>
                                    <polygon id="Fill-40" fill="#63CFD6" points="82.1254933 70.0936944 97.1753067 82.566652 95.3683733 64.3930779"></polygon>
                                    <polygon id="Fill-41" fill="#FEFF5E" points="100.79664 103.029041 114.2568 96.2734 97.1753067 82.5667972"></polygon>
                                    <polygon id="Fill-42" fill="#E8E273" points="82.5593067 113.374378 100.79664 103.028896 97.1753067 82.566652 82.1254933 70.0936944 73.2237333 73.2602195"></polygon>
                                </g>
                            </g>
                        </g>
                        <g id="Cube" opacity="0.896112351" transform="translate(11.612776, 14.108962)">
                            <path d="M54.6948886,2.46798088 C48.7405526,-0.815210997 41.4058596,-0.815210997 35.4515237,2.46798088 L9.85224942,16.5835796 C3.89873806,19.8667715 0.230979265,25.9338644 0.230979265,32.4994606 L0.230979265,60.7306581 C0.230979265,67.2962543 3.89873806,73.3633472 9.85224942,76.6465391 L35.4515237,90.7621378 C41.4058596,94.0445422 48.7405526,94.0445422 54.6948886,90.7621378 L80.2941628,76.6465391 C86.2476742,73.3633472 89.915433,67.2962543 89.915433,60.7306581 L89.915433,32.4994606 C89.915433,25.9338644 86.2476742,19.8667715 80.2941628,16.5835796 L54.6948886,2.46798088 Z" id="Fill-3" fill="#FFFFFF"></path>
                            <path d="M61.2129115,56.6242663 C60.8278298,58.9269895 58.7309075,60.5217277 56.5300873,60.1854545 C54.3284425,59.8499689 52.8565564,57.7110509 53.2416381,55.4083277 C53.6258952,53.1056044 55.7228175,51.5108662 57.9244623,51.8471394 C60.1252825,52.1826251 61.5979932,54.3215431 61.2129115,56.6242663" id="Fill-7" fill="#000000"></path>
                            <path d="M82.2632743,47.8999065 C81.8781926,50.2026297 79.7812703,51.7973679 77.5804501,51.4610947 C75.3788053,51.125609 73.9069192,48.986691 74.2920009,46.6839678 C74.6770826,44.3812446 76.7731803,42.7865064 78.9748251,43.1227796 C81.1764699,43.4582652 82.648356,45.5971832 82.2632743,47.8999065" id="Fill-9" fill="#000000"></path>
                            <path d="M63.2025552,66.7113595 C63.6181466,67.6122881 64.3709937,68.3068852 65.2689679,68.6833222 C66.1578717,69.0707845 67.1638667,69.1928509 68.1063685,69.0353459 C69.0381508,68.8723282 69.9567397,68.4919536 70.5570383,67.82807 C70.8654335,67.5036097 71.105388,67.1185099 71.2999904,66.697184 C71.4987156,66.272708 71.6355969,65.8198811 71.8755514,65.3237404 L72.0528374,64.9583288 L72.4354454,65.1489098 C73.1569582,65.5072337 73.9518591,65.7773548 74.72697,65.8127934 C75.1120517,65.8309065 75.4872384,65.7923178 75.8195465,65.6458381 C76.169171,65.5056587 76.4891104,65.281214 76.7801893,65.0221183 C77.3656454,64.5015642 77.7944302,63.7998794 78.0294372,63.0414928 C78.2891818,62.2831062 78.3188669,61.459355 78.1490022,60.6442666 C78.5052233,61.4058033 78.5810853,62.2862563 78.4367827,63.1344208 C78.2603213,63.9778601 77.8719413,64.792161 77.2518525,65.4591947 C76.9475803,65.7970429 76.5666215,66.0805519 76.1295909,66.2845209 C75.6826653,66.5018778 75.1730711,66.5735426 74.6997587,66.5664549 C73.7415897,66.5310163 72.8667039,66.2356944 72.0553112,65.846657 L72.6143805,65.672614 C72.2416676,66.4664392 71.9299741,67.5571614 71.1375469,68.3391737 C70.3508918,69.1306364 69.2698595,69.5527498 68.1921255,69.6622158 C67.1061456,69.7598689 66.0094462,69.5362118 65.0743656,69.040071 C64.1590751,68.5163669 63.4309656,67.6760777 63.2025552,66.7113595" id="Fill-11" fill="#000000"></path>
                            <path d="M59.3364404,55.0326405 C59.1927873,55.8314868 58.4080378,56.3843725 57.5852975,56.2676989 C56.7613699,56.1510253 56.2105019,55.4089391 56.3553422,54.611144 C56.4989953,53.8122977 57.2837447,53.259412 58.1064851,53.3760856 C58.9304127,53.4927592 59.4800934,54.2337942 59.3364404,55.0326405" id="Fill-13" fill="#FFFFFF"></path>
                            <path d="M80.5256296,46.2645571 C80.3819765,47.0634034 79.597227,47.6162891 78.7744867,47.4996155 C77.9505591,47.3829419 77.3996911,46.6408558 77.5445314,45.8430606 C77.6881845,45.0442144 78.4729339,44.4913286 79.2956743,44.6080022 C80.1196018,44.7246758 80.6692826,45.4657109 80.5256296,46.2645571" id="Fill-15" fill="#FFFFFF"></path>
                        </g>
                    </g>
                </g>
                <g id="Qubic" transform="translate(138.000000, 22.000000)" fill="#FF9500">
                    <path d="M117.085049,74.7692308 C105.713917,74.7692308 100.027755,69.663937 100.027755,59.4544194 L99.9646018,18.7511491 L111.336926,18.7671967 L111.398887,59.4544194 C111.398887,63.5380125 113.29348,65.5792741 117.085049,65.5792741 L148.511461,65.5792741 C152.299455,65.5792741 154.195239,63.5380125 154.195239,59.4544194 L154.132086,18.6923077 L165.50441,18.7062157 L165.566372,59.4544194 C165.566372,69.663937 159.88021,74.7692308 148.511461,74.7692308 L117.085049,74.7692308 Z" id="Fill-4"></path>
                    <path d="M195.135678,68.5801421 L226.589986,68.5801421 C230.385209,68.5801421 232.281627,66.5134442 232.281627,62.377882 L232.281627,36.536576 C232.281627,32.402097 230.385209,30.3343159 226.589986,30.3343159 L195.135678,30.3343159 C191.340455,30.3343159 189.445229,32.402097 189.445229,36.536576 L189.445229,62.377882 C189.445229,66.5134442 191.340455,68.5801421 195.135678,68.5801421 L195.135678,68.5801421 Z M195.135678,77.8846154 C183.753588,77.8846154 178.061947,72.7146211 178.061947,62.377882 L178.061947,0 L189.445229,0 L189.445229,22.6329417 C190.961171,21.5670975 192.858783,21.032009 195.135678,21.032009 L226.589986,21.032009 C237.972076,21.032009 243.663717,26.199837 243.663717,36.536576 L243.663717,62.377882 C243.663717,72.7146211 237.972076,77.8846154 226.589986,77.8846154 L195.135678,77.8846154 Z" id="Fill-6"></path>
                    <path d="M260.584808,77.8846154 L260.584808,21.1907497 L273.601032,21.1365977 L273.554789,77.8683698 L260.584808,77.8846154 Z M261.561365,10.8314775 C260.042126,9.58706514 259.283186,8.09463679 259.283186,6.34769417 C259.283186,4.60508371 260.042126,3.10940624 261.561365,1.86607696 C263.079245,0.62166464 264.92219,0 267.09292,0 C269.262291,0 271.105236,0.62166464 272.625836,1.86607696 C274.143715,3.10940624 274.902655,4.60508371 274.902655,6.34769417 C274.902655,8.09463679 274.143715,9.58706514 272.625836,10.8314775 C271.105236,12.0748067 269.262291,12.6975544 267.09292,12.6975544 C264.92219,12.6975544 263.079245,12.0748067 261.561365,10.8314775 L261.561365,10.8314775 Z" id="Fill-8"></path>
                    <path d="M304.591938,74.7692308 C293.128668,74.7692308 287.39823,69.6712318 287.39823,59.4762993 L287.39823,33.9863046 C287.39823,23.7892412 293.128668,18.6923077 304.591938,18.6923077 L335.806292,18.6923077 C347.268365,18.6923077 353,23.7892412 353,33.9863046 L353,41.2183248 L342.109294,41.2758571 L341.537927,41.2758571 L341.537927,33.9863046 C341.537927,29.9089708 339.624987,27.8687058 335.806292,27.8687058 L304.591938,27.8687058 C300.772046,27.8687058 298.860303,29.9089708 298.860303,33.9863046 L298.860303,59.4762993 C298.860303,63.5546985 300.772046,65.5938981 304.591938,65.5938981 L335.806292,65.5938981 C339.624987,65.5938981 341.537927,63.5546985 341.537927,59.4762993 L341.537927,52.2943535 L353,52.3263158 L353,59.4762993 C353,69.6712318 347.268365,74.7692308 335.806292,74.7692308 L304.591938,74.7692308 Z" id="Fill-10"></path>
                    <path d="M53.0466146,54.8263994 L61.8781005,49.0394601 L72.83062,63.1686383 C73.1641232,62.0774911 73.3314517,60.7987694 73.3314517,59.3314013 L73.3314517,17.9010322 C73.3314517,12.1055181 70.5780314,9.20615324 65.0711909,9.20615324 L19.2727878,9.20615324 C13.7659473,9.20615324 11.012527,12.1055181 11.012527,17.9010322 L11.012527,59.3292576 C11.012527,65.1247717 13.7659473,68.0230647 19.2762498,68.0230647 L63.0459384,68.0230647 L53.0466146,54.8263994 Z M19.2681719,77.2281461 C6.42310862,77.2281461 0,71.2632791 0,59.3292576 L0,17.9010322 C0,5.96808257 6.42310862,0 19.2727878,0 L65.0711909,0 C77.9197161,0 84.3451327,5.96808257 84.3451327,17.9010322 L84.3451327,59.3292576 C84.3451327,65.0904724 82.8403297,69.473283 79.8318777,72.4734021 L81.7567331,75.0297737 L72.838698,81 L69.7448506,76.920524 C68.2758213,77.1273918 66.7167807,77.2281461 65.065421,77.2281461 L19.2681719,77.2281461 Z" id="Fill-1"></path>
                </g>
            </g>
        </g>
    </g>
</svg>